<svg id="visual" viewBox="0 0 900 300" width="900" height="300" xmlns="http://www.w3.org/2000/svg" xmlns:xlink="http://www.w3.org/1999/xlink" version="1.1"><rect x="0" y="0" width="900" height="300" fill="#1E1E1E"></rect><path d="M0 214L129 208L257 212L386 210L514 199L643 218L771 199L900 210L900 301L771 301L643 301L514 301L386 301L257 301L129 301L0 301Z" fill="#1a64e9"></path><path d="M0 227L129 224L257 216L386 210L514 232L643 222L771 203L900 211L900 301L771 301L643 301L514 301L386 301L257 301L129 301L0 301Z" fill="#1b59c7"></path><path d="M0 255L129 226L257 226L386 247L514 248L643 255L771 234L900 239L900 301L771 301L643 301L514 301L386 301L257 301L129 301L0 301Z" fill="#1e4da5"></path><path d="M0 267L129 269L257 269L386 262L514 251L643 257L771 261L900 265L900 301L771 301L643 301L514 301L386 301L257 301L129 301L0 301Z" fill="#214184"></path><path d="M0 286L129 277L257 279L386 284L514 277L643 268L771 282L900 266L900 301L771 301L643 301L514 301L386 301L257 301L129 301L0 301Z" fill="#213565"></path></svg>