<svg id="visual" viewBox="0 0 900 300" width="900" height="300" xmlns="http://www.w3.org/2000/svg" xmlns:xlink="http://www.w3.org/1999/xlink" version="1.1"><rect x="0" y="0" width="900" height="300" fill="#001220"></rect><path d="M0 86L21.5 87C43 88 86 90 128.8 94C171.7 98 214.3 104 257.2 105.3C300 106.7 343 103.3 385.8 101C428.7 98.7 471.3 97.3 514.2 98.3C557 99.3 600 102.7 642.8 101.8C685.7 101 728.3 96 771.2 93C814 90 857 89 878.5 88.5L900 88L900 0L878.5 0C857 0 814 0 771.2 0C728.3 0 685.7 0 642.8 0C600 0 557 0 514.2 0C471.3 0 428.7 0 385.8 0C343 0 300 0 257.2 0C214.3 0 171.7 0 128.8 0C86 0 43 0 21.5 0L0 0Z" fill="#213565"></path><path d="M0 91L21.5 89.5C43 88 86 85 128.8 84C171.7 83 214.3 84 257.2 83C300 82 343 79 385.8 79.3C428.7 79.7 471.3 83.3 514.2 82.7C557 82 600 77 642.8 76.8C685.7 76.7 728.3 81.3 771.2 80.7C814 80 857 74 878.5 71L900 68L900 0L878.5 0C857 0 814 0 771.2 0C728.3 0 685.7 0 642.8 0C600 0 557 0 514.2 0C471.3 0 428.7 0 385.8 0C343 0 300 0 257.2 0C214.3 0 171.7 0 128.8 0C86 0 43 0 21.5 0L0 0Z" fill="#214184"></path><path d="M0 72L21.5 69.2C43 66.3 86 60.7 128.8 60.3C171.7 60 214.3 65 257.2 66C300 67 343 64 385.8 61.2C428.7 58.3 471.3 55.7 514.2 54.7C557 53.7 600 54.3 642.8 54C685.7 53.7 728.3 52.3 771.2 52.7C814 53 857 55 878.5 56L900 57L900 0L878.5 0C857 0 814 0 771.2 0C728.3 0 685.7 0 642.8 0C600 0 557 0 514.2 0C471.3 0 428.7 0 385.8 0C343 0 300 0 257.2 0C214.3 0 171.7 0 128.8 0C86 0 43 0 21.5 0L0 0Z" fill="#1e4da5"></path><path d="M0 47L21.5 47.3C43 47.7 86 48.3 128.8 48.7C171.7 49 214.3 49 257.2 48.5C300 48 343 47 385.8 44.8C428.7 42.7 471.3 39.3 514.2 38.3C557 37.3 600 38.7 642.8 39.7C685.7 40.7 728.3 41.3 771.2 43.2C814 45 857 48 878.5 49.5L900 51L900 0L878.5 0C857 0 814 0 771.2 0C728.3 0 685.7 0 642.8 0C600 0 557 0 514.2 0C471.3 0 428.7 0 385.8 0C343 0 300 0 257.2 0C214.3 0 171.7 0 128.8 0C86 0 43 0 21.5 0L0 0Z" fill="#1b59c7"></path><path d="M0 29L21.5 27C43 25 86 21 128.8 20.3C171.7 19.7 214.3 22.3 257.2 24.7C300 27 343 29 385.8 28.2C428.7 27.3 471.3 23.7 514.2 22C557 20.3 600 20.7 642.8 21.5C685.7 22.3 728.3 23.7 771.2 25.3C814 27 857 29 878.5 30L900 31L900 0L878.5 0C857 0 814 0 771.2 0C728.3 0 685.7 0 642.8 0C600 0 557 0 514.2 0C471.3 0 428.7 0 385.8 0C343 0 300 0 257.2 0C214.3 0 171.7 0 128.8 0C86 0 43 0 21.5 0L0 0Z" fill="#1a64e9"></path></svg>