<svg id="visual" viewBox="0 0 900 300" width="900" height="300" xmlns="http://www.w3.org/2000/svg" xmlns:xlink="http://www.w3.org/1999/xlink" version="1.1"><rect x="0" y="0" width="900" height="300" fill="#001220"></rect><path d="M0 212L21.5 211C43 210 86 208 128.8 204C171.7 200 214.3 194 257.2 192.7C300 191.3 343 194.7 385.8 197C428.7 199.3 471.3 200.7 514.2 199.7C557 198.7 600 195.3 642.8 196.2C685.7 197 728.3 202 771.2 205C814 208 857 209 878.5 209.5L900 210L900 301L878.5 301C857 301 814 301 771.2 301C728.3 301 685.7 301 642.8 301C600 301 557 301 514.2 301C471.3 301 428.7 301 385.8 301C343 301 300 301 257.2 301C214.3 301 171.7 301 128.8 301C86 301 43 301 21.5 301L0 301Z" fill="#213565"></path><path d="M0 207L21.5 208.5C43 210 86 213 128.8 214C171.7 215 214.3 214 257.2 215C300 216 343 219 385.8 218.7C428.7 218.3 471.3 214.7 514.2 215.3C557 216 600 221 642.8 221.2C685.7 221.3 728.3 216.7 771.2 217.3C814 218 857 224 878.5 227L900 230L900 301L878.5 301C857 301 814 301 771.2 301C728.3 301 685.7 301 642.8 301C600 301 557 301 514.2 301C471.3 301 428.7 301 385.8 301C343 301 300 301 257.2 301C214.3 301 171.7 301 128.8 301C86 301 43 301 21.5 301L0 301Z" fill="#214184"></path><path d="M0 226L21.5 228.8C43 231.7 86 237.3 128.8 237.7C171.7 238 214.3 233 257.2 232C300 231 343 234 385.8 236.8C428.7 239.7 471.3 242.3 514.2 243.3C557 244.3 600 243.7 642.8 244C685.7 244.3 728.3 245.7 771.2 245.3C814 245 857 243 878.5 242L900 241L900 301L878.5 301C857 301 814 301 771.2 301C728.3 301 685.7 301 642.8 301C600 301 557 301 514.2 301C471.3 301 428.7 301 385.8 301C343 301 300 301 257.2 301C214.3 301 171.7 301 128.8 301C86 301 43 301 21.5 301L0 301Z" fill="#1e4da5"></path><path d="M0 251L21.5 250.7C43 250.3 86 249.7 128.8 249.3C171.7 249 214.3 249 257.2 249.5C300 250 343 251 385.8 253.2C428.7 255.3 471.3 258.7 514.2 259.7C557 260.7 600 259.3 642.8 258.3C685.7 257.3 728.3 256.7 771.2 254.8C814 253 857 250 878.5 248.5L900 247L900 301L878.5 301C857 301 814 301 771.2 301C728.3 301 685.7 301 642.8 301C600 301 557 301 514.2 301C471.3 301 428.7 301 385.8 301C343 301 300 301 257.2 301C214.3 301 171.7 301 128.8 301C86 301 43 301 21.5 301L0 301Z" fill="#1b59c7"></path><path d="M0 269L21.5 271C43 273 86 277 128.8 277.7C171.7 278.3 214.3 275.7 257.2 273.3C300 271 343 269 385.8 269.8C428.7 270.7 471.3 274.3 514.2 276C557 277.7 600 277.3 642.8 276.5C685.7 275.7 728.3 274.3 771.2 272.7C814 271 857 269 878.5 268L900 267L900 301L878.5 301C857 301 814 301 771.2 301C728.3 301 685.7 301 642.8 301C600 301 557 301 514.2 301C471.3 301 428.7 301 385.8 301C343 301 300 301 257.2 301C214.3 301 171.7 301 128.8 301C86 301 43 301 21.5 301L0 301Z" fill="#1a64e9"></path></svg>