<svg id="visual" viewBox="0 0 900 300" width="900" height="300" xmlns="http://www.w3.org/2000/svg" xmlns:xlink="http://www.w3.org/1999/xlink" version="1.1"><rect x="0" y="0" width="900" height="300" fill="#1E1E1E"></rect><path d="M0 96L21.5 98C43 100 86 104 128.8 104.5C171.7 105 214.3 102 257.2 100.5C300 99 343 99 385.8 97.3C428.7 95.7 471.3 92.3 514.2 91.8C557 91.3 600 93.7 642.8 96.7C685.7 99.7 728.3 103.3 771.2 104C814 104.7 857 102.3 878.5 101.2L900 100L900 0L878.5 0C857 0 814 0 771.2 0C728.3 0 685.7 0 642.8 0C600 0 557 0 514.2 0C471.3 0 428.7 0 385.8 0C343 0 300 0 257.2 0C214.3 0 171.7 0 128.8 0C86 0 43 0 21.5 0L0 0Z" fill="#1c3564"></path><path d="M0 87L21.5 84.8C43 82.7 86 78.3 128.8 77.3C171.7 76.3 214.3 78.7 257.2 78.5C300 78.3 343 75.7 385.8 75C428.7 74.3 471.3 75.7 514.2 77.2C557 78.7 600 80.3 642.8 81.3C685.7 82.3 728.3 82.7 771.2 83.2C814 83.7 857 84.3 878.5 84.7L900 85L900 0L878.5 0C857 0 814 0 771.2 0C728.3 0 685.7 0 642.8 0C600 0 557 0 514.2 0C471.3 0 428.7 0 385.8 0C343 0 300 0 257.2 0C214.3 0 171.7 0 128.8 0C86 0 43 0 21.5 0L0 0Z" fill="#194184"></path><path d="M0 56L21.5 56C43 56 86 56 128.8 55.8C171.7 55.7 214.3 55.3 257.2 56.3C300 57.3 343 59.7 385.8 61.2C428.7 62.7 471.3 63.3 514.2 63.2C557 63 600 62 642.8 62C685.7 62 728.3 63 771.2 62.7C814 62.3 857 60.7 878.5 59.8L900 59L900 0L878.5 0C857 0 814 0 771.2 0C728.3 0 685.7 0 642.8 0C600 0 557 0 514.2 0C471.3 0 428.7 0 385.8 0C343 0 300 0 257.2 0C214.3 0 171.7 0 128.8 0C86 0 43 0 21.5 0L0 0Z" fill="#144da5"></path><path d="M0 40L21.5 41.3C43 42.7 86 45.3 128.8 46.5C171.7 47.7 214.3 47.3 257.2 46.2C300 45 343 43 385.8 43C428.7 43 471.3 45 514.2 44.8C557 44.7 600 42.3 642.8 40.7C685.7 39 728.3 38 771.2 38.5C814 39 857 41 878.5 42L900 43L900 0L878.5 0C857 0 814 0 771.2 0C728.3 0 685.7 0 642.8 0C600 0 557 0 514.2 0C471.3 0 428.7 0 385.8 0C343 0 300 0 257.2 0C214.3 0 171.7 0 128.8 0C86 0 43 0 21.5 0L0 0Z" fill="#1259c7"></path><path d="M0 23L21.5 23C43 23 86 23 128.8 24C171.7 25 214.3 27 257.2 26.8C300 26.7 343 24.3 385.8 23.3C428.7 22.3 471.3 22.7 514.2 23.5C557 24.3 600 25.7 642.8 26.3C685.7 27 728.3 27 771.2 26.7C814 26.3 857 25.7 878.5 25.3L900 25L900 0L878.5 0C857 0 814 0 771.2 0C728.3 0 685.7 0 642.8 0C600 0 557 0 514.2 0C471.3 0 428.7 0 385.8 0C343 0 300 0 257.2 0C214.3 0 171.7 0 128.8 0C86 0 43 0 21.5 0L0 0Z" fill="#1a64e9"></path></svg>