<svg id="visual" viewBox="0 0 900 300" width="900" height="300" xmlns="http://www.w3.org/2000/svg" xmlns:xlink="http://www.w3.org/1999/xlink" version="1.1"><rect x="0" y="0" width="900" height="300" fill="#1E1E1E"></rect><path d="M0 202L21.5 200C43 198 86 194 128.8 193.5C171.7 193 214.3 196 257.2 197.5C300 199 343 199 385.8 200.7C428.7 202.3 471.3 205.7 514.2 206.2C557 206.7 600 204.3 642.8 201.3C685.7 198.3 728.3 194.7 771.2 194C814 193.3 857 195.7 878.5 196.8L900 198L900 301L878.5 301C857 301 814 301 771.2 301C728.3 301 685.7 301 642.8 301C600 301 557 301 514.2 301C471.3 301 428.7 301 385.8 301C343 301 300 301 257.2 301C214.3 301 171.7 301 128.8 301C86 301 43 301 21.5 301L0 301Z" fill="#1c3564"></path><path d="M0 211L21.5 213.2C43 215.3 86 219.7 128.8 220.7C171.7 221.7 214.3 219.3 257.2 219.5C300 219.7 343 222.3 385.8 223C428.7 223.7 471.3 222.3 514.2 220.8C557 219.3 600 217.7 642.8 216.7C685.7 215.7 728.3 215.3 771.2 214.8C814 214.3 857 213.7 878.5 213.3L900 213L900 301L878.5 301C857 301 814 301 771.2 301C728.3 301 685.7 301 642.8 301C600 301 557 301 514.2 301C471.3 301 428.7 301 385.8 301C343 301 300 301 257.2 301C214.3 301 171.7 301 128.8 301C86 301 43 301 21.5 301L0 301Z" fill="#194184"></path><path d="M0 242L21.5 242C43 242 86 242 128.8 242.2C171.7 242.3 214.3 242.7 257.2 241.7C300 240.7 343 238.3 385.8 236.8C428.7 235.3 471.3 234.7 514.2 234.8C557 235 600 236 642.8 236C685.7 236 728.3 235 771.2 235.3C814 235.7 857 237.3 878.5 238.2L900 239L900 301L878.5 301C857 301 814 301 771.2 301C728.3 301 685.7 301 642.8 301C600 301 557 301 514.2 301C471.3 301 428.7 301 385.8 301C343 301 300 301 257.2 301C214.3 301 171.7 301 128.8 301C86 301 43 301 21.5 301L0 301Z" fill="#144da5"></path><path d="M0 258L21.5 256.7C43 255.3 86 252.7 128.8 251.5C171.7 250.3 214.3 250.7 257.2 251.8C300 253 343 255 385.8 255C428.7 255 471.3 253 514.2 253.2C557 253.3 600 255.7 642.8 257.3C685.7 259 728.3 260 771.2 259.5C814 259 857 257 878.5 256L900 255L900 301L878.5 301C857 301 814 301 771.2 301C728.3 301 685.7 301 642.8 301C600 301 557 301 514.2 301C471.3 301 428.7 301 385.8 301C343 301 300 301 257.2 301C214.3 301 171.7 301 128.8 301C86 301 43 301 21.5 301L0 301Z" fill="#1259c7"></path><path d="M0 275L21.5 275C43 275 86 275 128.8 274C171.7 273 214.3 271 257.2 271.2C300 271.3 343 273.7 385.8 274.7C428.7 275.7 471.3 275.3 514.2 274.5C557 273.7 600 272.3 642.8 271.7C685.7 271 728.3 271 771.2 271.3C814 271.7 857 272.3 878.5 272.7L900 273L900 301L878.5 301C857 301 814 301 771.2 301C728.3 301 685.7 301 642.8 301C600 301 557 301 514.2 301C471.3 301 428.7 301 385.8 301C343 301 300 301 257.2 301C214.3 301 171.7 301 128.8 301C86 301 43 301 21.5 301L0 301Z" fill="#1a64e9"></path></svg>